<svg width="1472.000000pt" height="832.000000pt" viewBox="0 0 1472.000000 832.000000" xmlns="http://www.w3.org/2000/svg">
  <g transform="translate(0.000000,832.000000) scale(0.100000,-0.100000)" fill="#fefefe" stroke="none">
    <path d="M0 4160 c0 -4160 0 -4160 7360 -4160 7360 0 7360 0 7360 4160 0 4160
0 4160 -7360 4160 -7360 0 -7360 0 -7360 -4160z m5692 3832 c11 -11 14 -313
18 -1580 3 -862 8 -1572 12 -1578 4 -6 3 -65 -3 -130 -9 -103 -8 -124 6 -157
31 -73 27 -75 290 182 94 92 225 218 291 281 67 63 177 176 246 250 69 74 589
600 1156 1167 568 568 1055 1059 1084 1090 188 211 433 446 488 469 70 30
3150 32 3150 2 0 -6 -237 -248 -527 -538 -291 -289 -633 -634 -762 -766 -284
-290 -1400 -1421 -1746 -1769 -551 -554 -595 -601 -595 -632 0 -41 15 -59 315
-368 284 -294 432 -443 1610 -1627 402 -403 780 -785 841 -848 61 -63 280
-283 487 -488 366 -364 398 -400 372 -422 -31 -26 -3115 -8 -3170 19 -40 19
-242 216 -1005 976 -1169 1165 -1855 1844 -2186 2162 -137 133 -256 248 -263
257 -15 18 -66 22 -76 6 -3 -5 -8 -759 -10 -1674 -3 -1812 0 -1705 -60 -1736
-54 -27 -2427 -28 -2455 0 -25 25 -23 -415 -20 3770 2 3791 1 3667 40 3687 37
19 2453 14 2472 -5z" />
  </g>
  <g transform="translate(0.000000,832.000000) scale(0.100000,-0.100000)" fill="#0c9db6" stroke="none">
    <path d="M3210 8007 c-39 -20 -38 102 -40 -3697 -3 -4183 -6 -3754 20 -3780
21 -21 90 -29 90 -10 0 6 -13 10 -30 10 -33 0 -44 45 -17 72 7 7 35 49 62 93
132 218 212 346 260 414 29 42 65 101 80 131 15 30 44 78 64 105 46 63 103
151 252 390 65 105 133 210 151 235 68 91 125 178 187 280 35 58 85 134 111
170 26 36 64 94 85 130 21 36 47 76 57 90 48 64 128 179 128 183 0 8 67 113
155 245 44 65 113 170 153 233 39 63 128 200 196 304 68 105 156 240 195 300
156 242 190 292 223 329 34 39 34 39 1614 38 1450 -2 1580 -3 1589 -18 22 -37
44 -59 50 -52 4 4 -2 19 -14 34 -42 53 -67 24 574 669 344 346 1460 1477 1746
1769 129 132 474 479 767 771 553 553 549 549 505 566 -49 18 -3109 4 -3153
-14 -55 -24 -300 -259 -488 -470 -29 -31 -516 -522 -1084 -1090 -567 -567
-1087 -1093 -1156 -1167 -69 -74 -179 -187 -246 -250 -66 -63 -197 -189 -291
-281 -266 -260 -269 -262 -268 -146 1 48 0 49 -7 17 -4 -19 -5 8 -1 60 3 52 5
113 3 135 -1 22 -6 747 -10 1612 -6 1269 -10 1575 -20 1585 -19 19 -2455 24
-2492 5z" />
    <path d="M9010 4030 c0 -19 147 -166 157 -156 4 3 -30 44 -75 89 -45 45 -82
75 -82 67z" />
    <path d="M5727 3963 c-4 -3 -7 -13 -7 -22 0 -12 3 -12 12 -3 24 24 45 9 180
-125 76 -75 141 -134 145 -129 4 4 -56 70 -133 147 -136 135 -171 158 -197
132z" />
    <path d="M9200 3829 c0 -19 95 -112 109 -108 6 2 -16 31 -49 64 -34 33 -60 53
-60 44z" />
    <path d="M5710 3239 c0 -204 3 -308 10 -304 6 4 10 118 10 311 0 196 -4 304
-10 304 -6 0 -10 -110 -10 -311z" />
    <path d="M9500 3523 c1 -14 100 -106 107 -99 4 3 -15 29 -42 56 -47 47 -65 60
-65 43z" />
    <path d="M6252 3483 c21 -20 40 -34 44 -30 9 9 -15 37 -32 37 -8 0 -14 7 -14
15 0 8 -8 15 -17 15 -13 0 -8 -9 19 -37z" />
    <path d="M6592 3153 c87 -86 161 -154 165 -150 9 10 -287 307 -307 307 -8 0
56 -71 142 -157z" />
    <path d="M9720 3302 c0 -14 79 -86 87 -79 4 4 -11 25 -32 47 -38 39 -55 49
-55 32z" />
    <path d="M9830 3188 c0 -19 35 -51 50 -46 6 2 -3 16 -20 33 -21 20 -30 24 -30
13z" />
    <path d="M9940 3082 c0 -14 49 -56 57 -49 3 4 -4 18 -17 32 -24 25 -40 32 -40
17z" />
    <path d="M10030 2989 c0 -18 66 -82 79 -77 6 1 -10 23 -34 47 -25 24 -45 38
-45 30z" />
    <path d="M6770 2982 c0 -14 379 -386 387 -379 7 8 -365 387 -379 387 -5 0 -8
-3 -8 -8z" />
    <path d="M5710 2745 c0 -115 3 -174 10 -170 6 4 10 72 10 170 0 98 -4 166 -10
170 -7 4 -10 -55 -10 -170z" />
    <path d="M10210 2809 c0 -19 47 -65 57 -55 4 3 -7 21 -25 39 -22 22 -32 27
-32 16z" />
    <path d="M10350 2667 c0 -9 7 -17 15 -17 8 0 15 -6 15 -13 0 -18 78 -92 87
-83 4 3 -21 35 -55 69 -42 42 -62 56 -62 44z" />
    <path d="M10500 2512 c0 -13 23 -32 39 -32 11 0 10 4 -4 20 -19 21 -35 26 -35
12z" />
    <path d="M7445 2310 c49 -49 91 -90 92 -90 14 0 -2 33 -17 37 -11 3 -20 10
-20 17 0 16 -115 126 -131 126 -7 0 27 -40 76 -90z" />
    <path d="M10650 2369 c0 -19 37 -55 47 -45 4 3 -5 19 -20 34 -20 19 -27 22
-27 11z" />
    <path d="M10800 2217 c0 -9 7 -17 15 -17 8 0 15 -6 15 -13 0 -18 48 -62 57
-53 4 4 -14 28 -40 54 -33 33 -47 42 -47 29z" />
    <path d="M8155 1600 c629 -629 585 -586 585 -565 0 8 -7 15 -15 15 -8 0 -15 5
-15 12 0 18 -1102 1118 -1120 1118 -8 0 246 -261 565 -580z" />
    <path d="M10930 2082 c0 -13 23 -32 39 -32 11 0 10 4 -4 20 -19 21 -35 26 -35
12z" />
    <path d="M11060 1959 c0 -19 37 -55 47 -45 4 3 -5 19 -20 34 -20 19 -27 22
-27 11z" />
    <path d="M11140 1873 c0 -15 160 -167 167 -160 4 4 -29 43 -72 87 -75 75 -95
91 -95 73z" />
    <path d="M11360 1652 c0 -14 89 -96 97 -89 4 4 -13 28 -37 52 -42 43 -60 54
-60 37z" />
    <path d="M11590 1419 c1 -13 54 -79 64 -79 2 0 43 -40 92 -90 48 -49 94 -90
101 -90 7 0 13 -5 13 -10 0 -17 68 -82 80 -78 6 2 -71 84 -170 182 -99 98
-180 172 -180 165z" />
    <path d="M5710 1025 c0 -182 3 -274 10 -270 6 4 10 105 10 270 0 165 -4 266
-10 270 -7 4 -10 -88 -10 -270z" />
    <path d="M8977 778 c100 -100 186 -179 190 -175 9 9 -286 307 -304 307 -7 0
-13 5 -13 11 0 15 -26 39 -42 39 -7 0 69 -82 169 -182z" />
    <path d="M12190 822 c0 -14 69 -76 77 -69 3 4 -9 23 -27 42 -33 34 -50 43 -50
27z" />
    <path d="M5696 606 c-7 -39 -20 -51 -59 -61 -39 -10 -34 -29 5 -21 43 9 67 34
75 79 7 47 -12 50 -21 3z" />
    <path d="M12390 621 c0 -6 10 -25 21 -40 23 -32 19 -51 -12 -51 -10 0 -19 -4
-19 -10 0 -15 46 -12 59 4 7 8 9 25 6 39 -7 27 -55 78 -55 58z" />
    <path d="M9190 576 c42 -51 440 -103 440 -58 0 7 -59 12 -162 14 -154 3 -166
4 -219 31 -63 31 -77 34 -59 13z" />
    <path d="M3360 520 c0 -6 28 -10 65 -10 37 0 65 4 65 10 0 6 -28 10 -65 10
-37 0 -65 -4 -65 -10z" />
    <path d="M3860 520 c0 -7 182 -10 525 -10 343 0 525 3 525 10 0 7 -182 10
-525 10 -343 0 -525 -3 -525 -10z" />
    <path d="M5030 520 c0 -6 55 -10 145 -10 90 0 145 4 145 10 0 6 -55 10 -145
10 -90 0 -145 -4 -145 -10z" />
    <path d="M5430 520 c0 -6 31 -10 74 -10 41 0 78 5 81 10 4 6 -23 10 -74 10
-47 0 -81 -4 -81 -10z" />
  </g>
  <g transform="translate(0.000000,832.000000) scale(0.100000,-0.100000)" fill="#086c88" stroke="none">
    <path d="M5168 8003 c23 -2 59 -2 80 0 20 2 1 4 -43 4 -44 0 -61 -2 -37 -4z" />
    <path d="M5638 4282 c-32 -4 -81 -59 -157 -177 -78 -122 -180 -280 -317 -490
-68 -104 -157 -241 -196 -304 -40 -63 -109 -168 -153 -233 -88 -132 -155 -237
-155 -245 0 -4 -80 -119 -128 -183 -10 -14 -36 -54 -57 -90 -21 -36 -59 -94
-85 -130 -26 -36 -76 -112 -111 -170 -62 -102 -119 -189 -187 -280 -18 -25
-86 -130 -151 -235 -149 -239 -206 -327 -252 -390 -20 -27 -49 -75 -64 -105
-15 -30 -51 -89 -80 -131 -48 -68 -128 -196 -260 -414 -27 -44 -55 -86 -62
-93 -33 -34 -16 -89 30 -94 112 -13 2352 1 2392 15 76 26 69 -118 75 1739 5
1755 4 1704 48 1682 39 -19 1083 -1046 2524 -2484 1053 -1052 911 -942 1230
-952 385 -13 2895 -5 2909 9 31 31 -2 68 -384 445 -210 208 -385 381 -389 385
-38 44 -578 591 -1223 1239 -1199 1204 -1594 1608 -1625 1663 -15 26 -15 26
-1580 26 -861 0 -1577 -1 -1592 -3z" />
  </g>
</svg>